<svg width="160" height="24" viewBox="0 0 160 24" fill="none" xmlns="http://www.w3.org/2000/svg">
<path d="M52.704 6.832V8.64H49.728V18H47.488V8.64H44.512V6.832H52.704ZM59.3304 9.008C60.0024 9.008 60.5997 9.15733 61.1224 9.456C61.645 9.744 62.0504 10.176 62.3384 10.752C62.637 11.3173 62.7864 12 62.7864 12.8V18H60.5464V13.104C60.5464 12.4 60.3704 11.8613 60.0184 11.488C59.6664 11.104 59.1864 10.912 58.5784 10.912C57.9597 10.912 57.469 11.104 57.1064 11.488C56.7544 11.8613 56.5784 12.4 56.5784 13.104V18H54.3384V6.16H56.5784V10.24C56.8664 9.856 57.2504 9.55733 57.7304 9.344C58.2104 9.12 58.7437 9.008 59.3304 9.008ZM73.1565 13.376C73.1565 13.696 73.1352 13.984 73.0925 14.24H66.6125C66.6658 14.88 66.8898 15.3813 67.2845 15.744C67.6792 16.1067 68.1645 16.288 68.7405 16.288C69.5725 16.288 70.1645 15.9307 70.5165 15.216H72.9325C72.6765 16.0693 72.1858 16.7733 71.4605 17.328C70.7352 17.872 69.8445 18.144 68.7885 18.144C67.9352 18.144 67.1672 17.9573 66.4845 17.584C65.8125 17.2 65.2845 16.6613 64.9005 15.968C64.5272 15.2747 64.3405 14.4747 64.3405 13.568C64.3405 12.6507 64.5272 11.8453 64.9005 11.152C65.2738 10.4587 65.7965 9.92533 66.4685 9.552C67.1405 9.17867 67.9138 8.992 68.7885 8.992C69.6312 8.992 70.3832 9.17333 71.0445 9.536C71.7165 9.89867 72.2338 10.416 72.5965 11.088C72.9698 11.7493 73.1565 12.512 73.1565 13.376ZM70.8365 12.736C70.8258 12.16 70.6178 11.7013 70.2125 11.36C69.8072 11.008 69.3112 10.832 68.7245 10.832C68.1698 10.832 67.7005 11.0027 67.3165 11.344C66.9432 11.6747 66.7138 12.1387 66.6285 12.736H70.8365ZM85.452 15.872H81.004L80.268 18H77.916L81.932 6.816H84.54L88.556 18H86.188L85.452 15.872ZM84.844 14.08L83.228 9.408L81.612 14.08H84.844ZM92.2971 6.16V18H90.0571V6.16H92.2971ZM93.9342 13.568C93.9342 12.6507 94.1209 11.8507 94.4943 11.168C94.8676 10.4747 95.3849 9.94133 96.0463 9.568C96.7076 9.184 97.4649 8.992 98.3183 8.992C99.4169 8.992 100.324 9.26933 101.038 9.824C101.764 10.368 102.249 11.136 102.494 12.128H100.078C99.9503 11.744 99.7316 11.4453 99.4223 11.232C99.1236 11.008 98.7503 10.896 98.3023 10.896C97.6623 10.896 97.1556 11.1307 96.7823 11.6C96.4089 12.0587 96.2223 12.7147 96.2223 13.568C96.2223 14.4107 96.4089 15.0667 96.7823 15.536C97.1556 15.9947 97.6623 16.224 98.3023 16.224C99.2089 16.224 99.8009 15.8187 100.078 15.008H102.494C102.249 15.968 101.764 16.7307 101.038 17.296C100.313 17.8613 99.4063 18.144 98.3183 18.144C97.4649 18.144 96.7076 17.9573 96.0463 17.584C95.3849 17.2 94.8676 16.6667 94.4943 15.984C94.1209 15.2907 93.9342 14.4853 93.9342 13.568ZM109.127 9.008C109.799 9.008 110.397 9.15733 110.919 9.456C111.442 9.744 111.847 10.176 112.135 10.752C112.434 11.3173 112.583 12 112.583 12.8V18H110.343V13.104C110.343 12.4 110.167 11.8613 109.815 11.488C109.463 11.104 108.983 10.912 108.375 10.912C107.757 10.912 107.266 11.104 106.903 11.488C106.551 11.8613 106.375 12.4 106.375 13.104V18H104.135V6.16H106.375V10.24C106.663 9.856 107.047 9.55733 107.527 9.344C108.007 9.12 108.541 9.008 109.127 9.008ZM122.953 13.376C122.953 13.696 122.932 13.984 122.889 14.24H116.409C116.463 14.88 116.687 15.3813 117.081 15.744C117.476 16.1067 117.961 16.288 118.537 16.288C119.369 16.288 119.961 15.9307 120.313 15.216H122.729C122.473 16.0693 121.983 16.7733 121.257 17.328C120.532 17.872 119.641 18.144 118.585 18.144C117.732 18.144 116.964 17.9573 116.281 17.584C115.609 17.2 115.081 16.6613 114.697 15.968C114.324 15.2747 114.137 14.4747 114.137 13.568C114.137 12.6507 114.324 11.8453 114.697 11.152C115.071 10.4587 115.593 9.92533 116.265 9.552C116.937 9.17867 117.711 8.992 118.585 8.992C119.428 8.992 120.18 9.17333 120.841 9.536C121.513 9.89867 122.031 10.416 122.393 11.088C122.767 11.7493 122.953 12.512 122.953 13.376ZM120.633 12.736C120.623 12.16 120.415 11.7013 120.009 11.36C119.604 11.008 119.108 10.832 118.521 10.832C117.967 10.832 117.497 11.0027 117.113 11.344C116.74 11.6747 116.511 12.1387 116.425 12.736H120.633ZM135.596 9.008C136.684 9.008 137.559 9.344 138.22 10.016C138.892 10.6773 139.228 11.6053 139.228 12.8V18H136.988V13.104C136.988 12.4107 136.812 11.8827 136.46 11.52C136.108 11.1467 135.628 10.96 135.02 10.96C134.412 10.96 133.927 11.1467 133.564 11.52C133.212 11.8827 133.036 12.4107 133.036 13.104V18H130.796V13.104C130.796 12.4107 130.62 11.8827 130.268 11.52C129.916 11.1467 129.436 10.96 128.828 10.96C128.21 10.96 127.719 11.1467 127.356 11.52C127.004 11.8827 126.828 12.4107 126.828 13.104V18H124.588V9.136H126.828V10.208C127.116 9.83467 127.484 9.54133 127.932 9.328C128.391 9.11467 128.892 9.008 129.436 9.008C130.13 9.008 130.748 9.15733 131.292 9.456C131.836 9.744 132.258 10.16 132.556 10.704C132.844 10.192 133.26 9.78133 133.804 9.472C134.359 9.16267 134.956 9.008 135.596 9.008ZM142.49 8.08C142.095 8.08 141.765 7.95733 141.498 7.712C141.242 7.456 141.114 7.14133 141.114 6.768C141.114 6.39467 141.242 6.08533 141.498 5.84C141.765 5.584 142.095 5.456 142.49 5.456C142.885 5.456 143.21 5.584 143.466 5.84C143.733 6.08533 143.866 6.39467 143.866 6.768C143.866 7.14133 143.733 7.456 143.466 7.712C143.21 7.95733 142.885 8.08 142.49 8.08ZM143.594 9.136V18H141.354V9.136H143.594ZM149.199 18.144C148.474 18.144 147.823 18.016 147.247 17.76C146.671 17.4933 146.212 17.136 145.871 16.688C145.54 16.24 145.359 15.744 145.327 15.2H147.583C147.626 15.5413 147.791 15.824 148.079 16.048C148.378 16.272 148.746 16.384 149.183 16.384C149.61 16.384 149.94 16.2987 150.175 16.128C150.42 15.9573 150.543 15.7387 150.543 15.472C150.543 15.184 150.394 14.9707 150.095 14.832C149.807 14.6827 149.343 14.5227 148.703 14.352C148.042 14.192 147.498 14.0267 147.071 13.856C146.655 13.6853 146.292 13.424 145.983 13.072C145.684 12.72 145.535 12.2453 145.535 11.648C145.535 11.1573 145.674 10.7093 145.951 10.304C146.239 9.89867 146.644 9.57867 147.167 9.344C147.7 9.10933 148.324 8.992 149.039 8.992C150.095 8.992 150.938 9.25867 151.567 9.792C152.196 10.3147 152.543 11.024 152.607 11.92H150.463C150.431 11.568 150.282 11.2907 150.015 11.088C149.759 10.8747 149.412 10.768 148.975 10.768C148.57 10.768 148.255 10.8427 148.031 10.992C147.818 11.1413 147.711 11.3493 147.711 11.616C147.711 11.9147 147.86 12.144 148.159 12.304C148.458 12.4533 148.922 12.608 149.551 12.768C150.191 12.928 150.719 13.0933 151.135 13.264C151.551 13.4347 151.908 13.7013 152.207 14.064C152.516 14.416 152.676 14.8853 152.687 15.472C152.687 15.984 152.543 16.4427 152.255 16.848C151.978 17.2533 151.572 17.5733 151.039 17.808C150.516 18.032 149.903 18.144 149.199 18.144ZM157.134 10.976V15.264C157.134 15.5627 157.203 15.7813 157.342 15.92C157.491 16.048 157.737 16.112 158.078 16.112H159.118V18H157.71C155.822 18 154.878 17.0827 154.878 15.248V10.976H153.822V9.136H154.878V6.944H157.134V9.136H159.118V10.976H157.134Z" fill="#1A64F0"/>
<path d="M16.5441 4.49428L28.5661 23.9998H32L17.8088 0.975965C17.0073 -0.325322 14.9999 -0.325322 14.1985 0.975965L0 23.9998H3.43381L15.4558 4.49428C15.6985 4.10182 16.3014 4.10182 16.5441 4.49428Z" fill="#1A64F0"/>
<path d="M9.80503 24.0001L15.6569 14.2852C15.805 14.0336 16.1821 14.0336 16.337 14.2852L22.1888 24.0001H25.3336L16.6467 9.58898C16.3572 9.11161 15.6366 9.11161 15.3538 9.58898L6.66699 24.0001H9.80503Z" fill="#26BEFF"/>
<path d="M16.079 11.0767L23.4509 23.9996H8.70703L16.079 11.0767Z" fill="#26BEFF"/>
</svg>
