<svg width="20" height="20" viewBox="0 0 20 20" fill="none" xmlns="http://www.w3.org/2000/svg">
<g clip-path="url(#clip0_302_22055)">
<path d="M10 20C15.5228 20 20 15.5228 20 10C20 4.47715 15.5228 0 10 0C4.47715 0 0 4.47715 0 10C0 15.5228 4.47715 20 10 20Z" fill="#F0B90B"/>
<path fill-rule="evenodd" clip-rule="evenodd" d="M5.74433 7.46007L10.0044 3.20007L11.703 4.89869L7.44295 9.15867L5.74433 7.46007ZM5.74732 12.5507L12.5554 5.74283L14.254 7.44145L7.44594 14.2492L5.74732 12.5507ZM15.1014 8.29364L8.29353 15.1014L9.99212 16.8001L16.8 9.992L15.1014 8.29341V8.29364ZM3.2002 10.0035L4.89881 8.3049L6.59744 10.0035L4.89881 11.7022L3.2002 10.0035Z" fill="#FFFDFA"/>
</g>
<defs>
<clipPath id="clip0_302_22055">
<rect width="20" height="20" fill="white"/>
</clipPath>
</defs>
</svg>
